---
title: Autogenerated diagram
---
classDiagram


class RandomClass2 {
attr1: dict[str, int]
attr2: RandomClass1[str, int]
attr3: str | int | float
attr4:
attr6:


}

RandomClass3 <|-- RandomClass1

class RandomClass3 {
a: int
attr1: str
attr2: str

__init__()
func()
func2()
}

RandomClass3 <|-- RandomClass1

class RandomClass3 {
attr1: str
attr2: str
attr3: str

func()
func2()
}